<?xml version="1.0" encoding="UTF-8" standalone="no"?>
<!-- Generator: Adobe Illustrator 25.4.1, SVG Export Plug-In . SVG Version: 6.00 Build 0)  -->

<svg
   width="16"
   version="1.1"
   id="Layer_1"
   viewBox="0 0 28.9 29"
   xml:space="preserve"
   sodipodi:docname="reddit.svg"
   inkscape:version="1.1.1 (3bf5ae0d25, 2021-09-20)"
   xmlns:inkscape="http://www.inkscape.org/namespaces/inkscape"
   xmlns:sodipodi="http://sodipodi.sourceforge.net/DTD/sodipodi-0.dtd"
   xmlns="http://www.w3.org/2000/svg"
   xmlns:svg="http://www.w3.org/2000/svg"><defs
   id="defs18" /><sodipodi:namedview
   id="namedview16"
   pagecolor="#505050"
   bordercolor="#ffffff"
   borderopacity="1"
   inkscape:pageshadow="0"
   inkscape:pageopacity="0"
   inkscape:pagecheckerboard="1"
   showgrid="false"
   inkscape:zoom="42.572705"
   inkscape:cx="8.5031008"
   inkscape:cy="19.049764"
   inkscape:window-width="3840"
   inkscape:window-height="2066"
   inkscape:window-x="-11"
   inkscape:window-y="-11"
   inkscape:window-maximized="1"
   inkscape:current-layer="Layer_1" />
          <style
   type="text/css"
   id="style2">
            .st1{fill:#FFFFFF;}
          </style>
          <g
   id="g13"
   transform="matrix(1.4874741,0,0,1.4874741,-6.9776044,-7.1515126)">
            <g
   transform="translate(-11,-12)"
   id="g11">
              <g
   id="g9">
                <g
   id="g7">
                  <g
   id="g5">
                    <path
   id="vor3i"
   class="st1"
   d="m 33.9,28.7 c 0,0.2 0,0.4 0,0.6 0,3.3 -3.8,5.9 -8.5,5.9 -4.7,0 -8.5,-2.6 -8.5,-5.9 0,-0.2 0,-0.4 0,-0.6 -1.1,-0.5 -1.5,-1.7 -1.1,-2.8 0.3,-0.8 1.1,-1.3 1.9,-1.2 0.6,0 1.1,0.2 1.5,0.6 1.7,-1.1 3.7,-1.8 5.7,-1.8 l 1.1,-5 c 0,-0.1 0.1,-0.2 0.1,-0.2 0.1,-0.1 0.2,-0.1 0.3,-0.1 l 3.5,0.8 c 0.4,-0.7 1.3,-1.1 2,-0.7 0.7,0.4 1.1,1.3 0.7,2 -0.4,0.7 -1.3,1.1 -2,0.7 -0.5,-0.2 -0.8,-0.7 -0.8,-1.3 l -3.1,-0.7 -1,4.5 c 2.2,0.1 4.2,0.8 5.6,1.8 0.8,-0.8 2.2,-0.8 3,0 0.4,0.4 0.6,0.9 0.6,1.5 0.3,0.9 -0.3,1.6 -1,1.9 z m -11.7,1.1 c 0.8,0 1.5,-0.7 1.5,-1.5 0,-0.8 -0.7,-1.5 -1.5,-1.5 -0.8,0 -1.5,0.7 -1.5,1.5 0,0.8 0.6,1.5 1.5,1.5 z m 6.9,1.9 c -0.2,-0.2 -0.4,-0.2 -0.5,0 -0.6,0.7 -2,0.9 -3,0.9 -1,0 -2.4,-0.2 -3,-0.9 -0.2,-0.2 -0.4,-0.2 -0.5,0 -0.2,0.2 -0.2,0.4 0,0.5 1,1 3,1.1 3.6,1.1 0.6,0 2.5,-0.1 3.6,-1.1 -0.1,-0.1 -0.1,-0.3 -0.2,-0.5 z m 1.2,-3.4 c 0,-0.8 -0.7,-1.5 -1.5,-1.5 -0.8,0 -1.5,0.7 -1.5,1.5 0,0.8 0.7,1.5 1.5,1.5 0.8,0 1.5,-0.7 1.5,-1.5 z" />
                  </g>
                </g>
              </g>
            </g>
          </g>
          </svg>
